<?xml version="1.0" encoding="UTF-8"?>
<svg version="1.1" xmlns="http://www.w3.org/2000/svg" width="512" height="512">
<path d="M0 0 C1.69297556 -0.00346207 3.38594886 -0.00823031 5.0789175 -0.01418173 C9.70334532 -0.02664589 14.32758617 -0.02054232 18.95201445 -0.01122308 C23.95004733 -0.00441406 28.94804886 -0.01492298 33.94607544 -0.02316284 C43.72626876 -0.03648263 53.5063929 -0.03363025 63.28658891 -0.02492492 C71.23719744 -0.01814188 79.18778662 -0.01723434 87.13839722 -0.02049637 C88.27120477 -0.02095607 89.40401233 -0.02141577 90.57114738 -0.0218894 C92.8726302 -0.0228486 95.17411302 -0.02382124 97.47559583 -0.02480717 C119.04208274 -0.03335593 140.60853136 -0.023535 162.17501199 -0.00740607 C180.66853303 0.00599663 199.16199756 0.0036684 217.65551758 -0.01016235 C239.14634792 -0.02622724 260.63714472 -0.032532 282.12798023 -0.02332556 C284.42086092 -0.02236994 286.71374162 -0.02142683 289.00662231 -0.02049637 C290.13467913 -0.02003354 291.26273594 -0.01957072 292.42497629 -0.01909386 C300.36339369 -0.01650671 308.30178976 -0.02086906 316.24020386 -0.02793503 C325.91825167 -0.03636031 335.59622652 -0.03404823 345.274266 -0.0180928 C350.20942623 -0.01022396 355.14446492 -0.00709482 360.07962418 -0.01704025 C364.60229177 -0.02601639 369.12472579 -0.0210064 373.64737236 -0.0051076 C375.27843882 -0.00177213 376.90952523 -0.0034259 378.54057872 -0.01073496 C397.85759201 -0.09061972 413.93435553 4.54731078 428.07250977 18.38095093 C440.99721677 33.4671277 444.54033906 48.92110697 444.45346069 68.30844116 C444.45692277 70.00141672 444.461691 71.69439003 444.46764243 73.38735867 C444.48010659 78.01178648 444.47400302 82.63602733 444.46468377 87.26045561 C444.45787476 92.25848849 444.46838367 97.25649002 444.47662354 102.2545166 C444.48994332 112.03470993 444.48709094 121.81483407 444.47838561 131.59503007 C444.47160257 139.5456386 444.47069503 147.49622778 444.47395706 155.44683838 C444.47441676 156.57964593 444.47487646 157.71245349 444.47535009 158.87958854 C444.47630929 161.18107137 444.47728193 163.48255418 444.47826786 165.78403699 C444.48681662 187.35052391 444.47699569 208.91697252 444.46086676 230.48345315 C444.44746406 248.97697419 444.4497923 267.47043872 444.46362305 285.96395874 C444.47968794 307.45478908 444.48599269 328.94558589 444.47678626 350.43642139 C444.47583064 352.72930208 444.47488752 355.02218278 444.47395706 357.31506348 C444.47349424 358.44312029 444.47303141 359.5711771 444.47255456 360.73341745 C444.4699674 368.67183485 444.47432976 376.61023092 444.48139572 384.54864502 C444.48982101 394.22669284 444.48750893 403.90466768 444.47155349 413.58270717 C444.46368466 418.5178674 444.46055551 423.45290608 444.47050095 428.38806534 C444.47947709 432.91073293 444.47446709 437.43316695 444.45856829 441.95581353 C444.45523282 443.58687998 444.45688659 445.2179664 444.46419565 446.84901989 C444.54408041 466.16603317 439.90614991 482.24279669 426.07250977 496.38095093 C410.98633299 509.30565793 395.53235373 512.84878022 376.14501953 512.76190186 C374.45204397 512.76536393 372.75907067 512.77013217 371.06610203 512.77608359 C366.44167421 512.78854775 361.81743336 512.78244418 357.19300508 512.77312493 C352.1949722 512.76631592 347.19697067 512.77682484 342.19894409 512.7850647 C332.41875077 512.79838448 322.63862663 512.79553211 312.85843062 512.78682677 C304.90782209 512.78004373 296.95723291 512.7791362 289.00662231 512.78239822 C287.87381476 512.78285792 286.74100721 512.78331762 285.57387215 512.78379125 C283.27238933 512.78475046 280.97090651 512.7857231 278.6694237 512.78670903 C257.10293679 512.79525778 235.53648817 512.78543685 213.97000754 512.76930793 C195.4764865 512.75590522 176.98302197 512.75823346 158.48950195 512.77206421 C136.99867161 512.7881291 115.50787481 512.79443386 94.0170393 512.78522742 C91.72415861 512.7842718 89.43127792 512.78332869 87.13839722 512.78239822 C86.01034041 512.7819354 84.88228359 512.78147257 83.72004324 512.78099572 C75.78162584 512.77840856 67.84322977 512.78277092 59.90481567 512.78983688 C50.22676786 512.79826217 40.54879301 512.79595009 30.87075353 512.77999465 C25.9355933 512.77212582 21.00055461 512.76899667 16.06539536 512.77894211 C11.54272776 512.78791825 7.02029374 512.78290826 2.49764717 512.76700945 C0.86658071 512.76367398 -0.7645057 512.76532775 -2.39555919 512.77263682 C-21.71257248 512.85252158 -37.789336 508.21459107 -51.92749023 494.38095093 C-64.85219724 479.29477415 -68.39531953 463.84079489 -68.30844116 444.45346069 C-68.31190323 442.76048513 -68.31667147 441.06751183 -68.3226229 439.37454319 C-68.33508705 434.75011538 -68.32898348 430.12587452 -68.31966424 425.50144625 C-68.31285523 420.50341337 -68.32336414 415.50541184 -68.331604 410.50738525 C-68.34492379 400.72719193 -68.34207141 390.94706779 -68.33336608 381.16687179 C-68.32658304 373.21626326 -68.3256755 365.26567407 -68.32893753 357.31506348 C-68.32939723 356.18225592 -68.32985693 355.04944837 -68.33033056 353.88231331 C-68.33128976 351.58083049 -68.3322624 349.27934767 -68.33324833 346.97786486 C-68.34179709 325.41137795 -68.33197616 303.84492933 -68.31584723 282.2784487 C-68.30244453 263.78492767 -68.30477277 245.29146313 -68.31860352 226.79794312 C-68.3346684 205.30711277 -68.34097316 183.81631597 -68.33176672 162.32548046 C-68.33081111 160.03259977 -68.32986799 157.73971908 -68.32893753 155.44683838 C-68.3284747 154.31878157 -68.32801188 153.19072476 -68.32753503 152.0284844 C-68.32494787 144.09006701 -68.32931022 136.15167093 -68.33637619 128.21325684 C-68.34480148 118.53520902 -68.34248939 108.85723418 -68.32653396 99.17919469 C-68.31866513 94.24403446 -68.31553598 89.30899577 -68.32548141 84.37383652 C-68.33445756 79.85116892 -68.32944756 75.3287349 -68.31354876 70.80608833 C-68.31021329 69.17502187 -68.31186706 67.54393546 -68.31917612 65.91288197 C-68.39906088 46.59586868 -63.76113038 30.51910516 -49.92749023 16.38095093 C-34.84131346 3.45624392 -19.3873342 -0.08687836 0 0 Z " fill="#415A77" transform="translate(67.927490234375,-0.380950927734375)"/>
<path d="M0 0 C2.92547292 1.17819301 5.90410946 2.16811089 8.89428711 3.16796875 C20.2584642 6.98404411 29.9760218 12.70420808 40.10595703 19.04736328 C42.48212171 20.47368088 44.7676183 21.67040525 47.29345703 22.78564453 C51.74512123 24.87999288 55.01710804 28.22936282 58.51611328 31.62939453 C60.98179469 33.74177318 63.46942479 35.159859 66.3059082 36.70947266 C69.56503845 38.77112781 72.09152099 41.56347636 74.73095703 44.34814453 C78.36894924 48.13199964 81.98512568 51.58061664 86.10595703 54.84814453 C87.30759538 56.12870404 88.47678167 57.44075407 89.60595703 58.78564453 C91.58681358 61.10950655 93.54160253 63.27341752 95.73095703 65.41064453 C103.10595703 72.97972348 103.10595703 72.97972348 103.10595703 76.84814453 C104.09595703 77.17814453 105.08595703 77.50814453 106.10595703 77.84814453 C110.86795697 83.39741059 114.27957845 89.1354954 117.10595703 95.84814453 C118.32864525 97.74106781 119.58250084 99.61399571 120.85595703 101.47314453 C127.12817019 110.73157682 132.11535638 119.75415441 135.12548828 130.55908203 C136.51674746 135.22617456 138.37792753 139.67650779 140.25048828 144.16845703 C141.10595703 146.84814453 141.10595703 146.84814453 140.10595703 149.84814453 C138.40698242 151.10327148 138.40698242 151.10327148 136.20361328 152.33642578 C135.40044678 152.79259277 134.59728027 153.24875977 133.76977539 153.71875 C132.91134033 154.1945752 132.05290527 154.67040039 131.16845703 155.16064453 C129.4207069 156.14829908 127.67330734 157.13657427 125.92626953 158.12548828 C125.08741211 158.59712402 124.24855469 159.06875977 123.38427734 159.5546875 C120.73695038 161.05763845 118.13554758 162.62705019 115.54345703 164.22314453 C112.31543836 166.16221704 109.05699522 168.01913799 105.73095703 169.78564453 C104.93947266 170.20716797 104.14798828 170.62869141 103.33251953 171.06298828 C100.78511757 171.96128266 99.60449175 171.76655569 97.10595703 170.84814453 C96.98220703 170.21392578 96.85845703 169.57970703 96.73095703 168.92626953 C95.15558149 161.79769518 92.81500167 155.18079336 90.10595703 148.41064453 C89.76177734 147.54665039 89.41759766 146.68265625 89.06298828 145.79248047 C87.34480811 141.57438105 85.48046142 137.74261191 83.10595703 133.84814453 C82.24198341 131.20078152 81.70673158 128.57473669 81.10595703 125.84814453 C80.44595703 125.84814453 79.78595703 125.84814453 79.10595703 125.84814453 C77.62548828 123.82861328 77.62548828 123.82861328 75.91845703 121.03564453 C75.28423828 120.02115234 74.65001953 119.00666016 73.99658203 117.96142578 C72.85389529 116.07977014 71.73252866 114.18460648 70.65283203 112.26611328 C60.31098617 94.5488984 42.0900046 77.40390315 24.54345703 66.96533203 C21.61659117 65.20089755 18.84060976 63.27924257 16.06738281 61.28417969 C10.25419239 57.10288282 4.82449384 54.21632443 -1.89404297 51.84814453 C-3.83592691 51.04617865 -5.77323143 50.23306109 -7.70654297 49.41064453 C-8.73005859 48.98912109 -9.75357422 48.56759766 -10.80810547 48.13330078 C-12.77313035 47.31495498 -14.7278848 46.47115407 -16.66748047 45.59423828 C-54.92867202 29.23321938 -103.76376674 31.82020024 -141.80181885 46.99249268 C-142.77559479 47.38510284 -142.77559479 47.38510284 -143.76904297 47.78564453 C-144.39711853 48.03836121 -145.02519409 48.29107788 -145.67230225 48.55145264 C-156.01400066 52.75492277 -165.98623184 57.34485309 -174.78857422 64.27783203 C-177.29762279 66.1491447 -179.91786883 67.76763058 -182.58154297 69.41064453 C-186.58826674 71.90791004 -189.68009009 74.42683985 -192.89404297 77.84814453 C-193.55404297 77.84814453 -194.21404297 77.84814453 -194.89404297 77.84814453 C-194.89404297 78.50814453 -194.89404297 79.16814453 -194.89404297 79.84814453 C-196.36883974 81.11225605 -197.90121567 82.30954646 -199.45654297 83.47314453 C-204.24461907 87.20919264 -208.04348332 91.18357109 -211.89404297 95.84814453 C-213.05898787 97.14136426 -214.22567449 98.43301703 -215.39404297 99.72314453 C-221.85535446 107.12402034 -226.94086928 115.39630055 -231.89404297 123.84814453 C-232.95464028 125.62011809 -234.01711585 127.3909689 -235.08154297 129.16064453 C-235.7834375 130.33046875 -235.7834375 130.33046875 -236.49951172 131.52392578 C-237.42117282 133.06002762 -238.36541018 134.58283108 -239.33276367 136.09057617 C-241.03427662 139.09582851 -242.14772492 142.02780636 -243.26904297 145.29345703 C-243.69701172 146.53611328 -244.12498047 147.77876953 -244.56591797 149.05908203 C-244.78441406 149.70329102 -245.00291016 150.3475 -245.22802734 151.01123047 C-245.88581418 152.94890458 -246.55321585 154.88305065 -247.22216797 156.81689453 C-251.30862138 168.69810734 -254.32795931 179.88512552 -255.58154297 192.41064453 C-255.76934326 194.26979492 -255.76934326 194.26979492 -255.9609375 196.16650391 C-258.44382224 222.09660355 -256.81220654 248.20854802 -247.89404297 272.84814453 C-247.63155762 273.5904834 -247.36907227 274.33282227 -247.09863281 275.09765625 C-245.4570088 279.72090152 -243.71609026 284.29302631 -241.89404297 288.84814453 C-241.54599609 289.71826172 -241.19794922 290.58837891 -240.83935547 291.48486328 C-238.39479793 297.27300984 -235.20143347 302.51830375 -231.89404297 307.84814453 C-231.26111328 308.90646484 -230.62818359 309.96478516 -229.97607422 311.05517578 C-224.57397425 320.0308119 -218.60835181 328.06922505 -211.64013672 335.87548828 C-210.46498887 337.20311616 -209.31146027 338.55016332 -208.17919922 339.91455078 C-204.61305983 344.17612779 -201.00117496 347.49453305 -196.39794922 350.62158203 C-195.90166016 351.02634766 -195.40537109 351.43111328 -194.89404297 351.84814453 C-194.89404297 352.50814453 -194.89404297 353.16814453 -194.89404297 353.84814453 C-194.23404297 353.84814453 -193.57404297 353.84814453 -192.89404297 353.84814453 C-192.25466797 354.52876953 -191.61529297 355.20939453 -190.95654297 355.91064453 C-187.69583866 359.31520344 -183.78579044 361.55676354 -179.79638672 364.02001953 C-177.04694073 365.75183746 -174.40840705 367.5790611 -171.76904297 369.47314453 C-164.35755211 374.68562162 -156.99291287 378.36424225 -148.47607422 381.46923828 C-144.89404297 382.84814453 -144.89404297 382.84814453 -141.40576172 384.50830078 C-131.8137151 389.0452835 -122.02288207 391.30226209 -111.64404297 393.22314453 C-110.96312592 393.35042938 -110.28220886 393.47771423 -109.58065796 393.6088562 C-70.08564521 400.88990027 -22.65944095 395.90466617 11.73095703 373.41064453 C12.65521484 372.80865234 13.57947266 372.20666016 14.53173828 371.58642578 C16.69230044 370.12747258 18.81385719 368.63594265 20.91845703 367.09814453 C24.10595703 364.84814453 24.10595703 364.84814453 27.00048828 363.47314453 C30.16778356 361.81579254 32.38141739 360.03574564 34.98095703 357.59814453 C37.98337678 354.81530473 40.99023493 352.06594616 44.10595703 349.41064453 C53.85414283 340.90313693 64.29266256 331.21755575 70.41845703 319.66064453 C73.02290231 314.90950497 75.69800524 310.07560379 79.10595703 305.84814453 C79.76595703 305.84814453 80.42595703 305.84814453 81.10595703 305.84814453 C81.36119141 304.90455078 81.36119141 304.90455078 81.62158203 303.94189453 C83.01368729 299.02509724 84.61438614 294.5786688 86.98486328 290.05908203 C88.39509593 287.27792636 89.66967621 284.45546576 90.91845703 281.59814453 C91.35802734 280.60298828 91.79759766 279.60783203 92.25048828 278.58251953 C93.14243481 275.7315489 93.39099041 274.52579547 92.10595703 271.84814453 C90.30223666 270.87691049 88.48408459 269.92781135 86.62158203 269.07470703 C83.81924686 267.70835106 81.24613108 266.13207742 78.60595703 264.47314453 C72.02873333 260.37496863 65.36029974 256.44357611 58.66845703 252.53564453 C57.10417969 251.61936279 57.10417969 251.61936279 55.50830078 250.68457031 C50.77138065 247.92366192 46.05961942 245.20177143 41.10595703 242.84814453 C41.10595703 242.18814453 41.10595703 241.52814453 41.10595703 240.84814453 C40.32220703 240.80689453 39.53845703 240.76564453 38.73095703 240.72314453 C31.81156344 239.05294608 26.19229776 234.66887632 20.54345703 230.47314453 C15.46532952 226.831012 10.03508513 224.39454079 4.36572266 221.83789062 C-0.76509942 219.48607347 -5.24164214 216.75278377 -9.77294922 213.36767578 C-12.34199861 211.5272334 -14.99740785 210.20885631 -17.84716797 208.86376953 C-21.07707376 207.26114452 -24.11563371 205.35689794 -27.19482422 203.48486328 C-36.35867125 197.9282035 -45.69617151 192.72114279 -55.13183594 187.64404297 C-64.33503824 182.68414644 -73.30417746 177.71127465 -81.89794922 171.75048828 C-86.15713323 169.04615632 -90.64408373 166.90386862 -95.1796875 164.70678711 C-98.78957378 162.94437449 -102.20251027 161.13327879 -105.51904297 158.84814453 C-111.40647889 154.81104561 -117.69597453 151.38989792 -123.89404297 147.84814453 C-123.56404297 191.40814453 -123.23404297 234.96814453 -122.89404297 279.84814453 C-110.27419395 272.47939727 -110.27419395 272.47939727 -97.87451172 264.80908203 C-95.89404297 263.84814453 -95.89404297 263.84814453 -91.89404297 263.84814453 C-91.89404297 263.18814453 -91.89404297 262.52814453 -91.89404297 261.84814453 C-91.19279297 261.47302734 -90.49154297 261.09791016 -89.76904297 260.71142578 C-83.26159352 257.20243228 -83.26159352 257.20243228 -76.95654297 253.34814453 C-73.75192271 251.29037201 -70.44998004 249.62523907 -67.01904297 247.97314453 C-61.93799929 245.51602366 -57.62772712 242.61715696 -53.24560547 239.07080078 C-50.02480685 237.39619951 -48.3351876 237.84765528 -44.89404297 238.84814453 C-42.51513672 240.15283203 -42.51513672 240.15283203 -40.33154297 241.72314453 C-39.55939453 242.26326172 -38.78724609 242.80337891 -37.99169922 243.35986328 C-37.29947266 243.85099609 -36.60724609 244.34212891 -35.89404297 244.84814453 C-33.17832474 246.59396339 -30.69736125 247.92913112 -27.70654297 249.16064453 C-22.80391086 251.18821011 -18.39652541 254.06847692 -13.89404297 256.84814453 C-12.96849609 257.34314453 -12.04294922 257.83814453 -11.08935547 258.34814453 C-10.36490234 258.84314453 -9.64044922 259.33814453 -8.89404297 259.84814453 C-8.89404297 260.83814453 -8.89404297 261.82814453 -8.89404297 262.84814453 C-9.54888672 263.18845703 -10.20373047 263.52876953 -10.87841797 263.87939453 C-16.01811998 266.60895379 -20.9158296 269.47792454 -25.70654297 272.78564453 C-31.08323229 276.44903648 -36.65125483 279.29485457 -42.49951172 282.12548828 C-47.53452867 284.68065799 -52.19545889 287.72822485 -56.89404297 290.84814453 C-60.88088073 293.47451028 -64.72231583 295.83806883 -69.14404297 297.66064453 C-72.92139544 299.26569703 -76.13795688 301.27308131 -79.51904297 303.59814453 C-84.4499075 306.97451205 -89.51104603 309.86911367 -94.80322266 312.62084961 C-100.37602699 315.53300221 -105.82941087 318.63240489 -111.26904297 321.78564453 C-112.10830322 322.27073486 -112.94756348 322.7558252 -113.81225586 323.25561523 C-117.56687863 325.26108144 -117.56687863 325.26108144 -120.89404297 327.84814453 C-127.83374677 327.70804284 -132.68110432 324.36748169 -138.45654297 320.78564453 C-140.40916056 319.60121388 -142.36228608 318.41762018 -144.31591797 317.23486328 C-145.26402344 316.65655762 -146.21212891 316.07825195 -147.18896484 315.48242188 C-150.823866 313.28639043 -154.5058256 311.18075855 -158.20654297 309.09814453 C-163.78835191 305.95383559 -163.78835191 305.95383559 -164.89404297 304.84814453 C-164.99167398 302.4952716 -165.02401742 300.17179767 -165.01429749 297.81846619 C-165.01557912 296.70237475 -165.01557912 296.70237475 -165.01688665 295.56373602 C-165.01854368 293.05166273 -165.01301647 290.53965511 -165.00756836 288.02758789 C-165.00728651 286.23435976 -165.00744418 284.44113151 -165.00801086 282.64790344 C-165.00829893 277.76381088 -165.00240083 272.87974266 -164.99543691 267.99565578 C-164.98920478 262.89737873 -164.98859968 257.79910119 -164.9874115 252.70082092 C-164.98429776 243.03937294 -164.97608381 233.37793621 -164.96606201 223.71649319 C-164.95490218 212.72030831 -164.94939075 201.7241229 -164.94436657 190.72793376 C-164.93390123 168.1013311 -164.91630098 145.47473845 -164.89404297 122.84814453 C-164.33007812 122.54110596 -163.76611328 122.23406738 -163.18505859 121.91772461 C-160.5866697 120.50121961 -157.99035243 119.08095708 -155.39404297 117.66064453 C-154.06373047 116.93651367 -154.06373047 116.93651367 -152.70654297 116.19775391 C-147.86571301 113.54597573 -143.15163624 110.81568449 -138.56787109 107.73754883 C-136.89404297 106.84814453 -136.89404297 106.84814453 -133.89404297 106.84814453 C-133.89404297 106.18814453 -133.89404297 105.52814453 -133.89404297 104.84814453 C-132.48653076 103.97897567 -131.06759087 103.12829305 -129.64404297 102.28564453 C-128.85513672 101.80998047 -128.06623047 101.33431641 -127.25341797 100.84423828 C-124.47732749 99.67221333 -123.64558366 99.73787373 -120.89404297 100.84814453 C-113.14427414 104.58297288 -105.82267799 109.24209331 -98.47216797 113.69970703 C-93.38930877 116.76217127 -88.42921092 119.6602572 -82.89404297 121.84814453 C-81.53453931 122.68190264 -80.2010376 123.55926938 -78.89404297 124.47314453 C-70.86955569 129.92449043 -62.74477197 135.02630563 -54.01904297 139.28564453 C-48.49238341 141.98513501 -43.24477382 144.94664528 -38.00097656 148.15600586 C-32.44766014 151.54669854 -26.80545938 154.76681977 -21.14404297 157.97314453 C-15.72755491 161.04393956 -10.35011139 164.11519409 -5.14404297 167.53564453 C-0.0280249 170.87854346 5.33174358 173.66862138 10.74145508 176.49755859 C15.25687843 178.86173974 19.73734156 181.26629874 24.16845703 183.78564453 C25.12880859 184.33091797 26.08916016 184.87619141 27.07861328 185.43798828 C27.74763672 185.90333984 28.41666016 186.36869141 29.10595703 186.84814453 C29.10595703 187.50814453 29.10595703 188.16814453 29.10595703 188.84814453 C29.92580078 189.09048828 30.74564453 189.33283203 31.59033203 189.58251953 C35.73889992 191.07600397 39.48209706 193.00875997 43.35595703 195.09814453 C44.11175049 195.50218506 44.86754395 195.90622559 45.64624023 196.32250977 C50.39205761 198.8763836 55.05296029 201.53359504 59.64501953 204.35595703 C62.45419315 206.05929722 65.30713945 207.6713903 68.16845703 209.28564453 C73.89337229 212.5214662 79.52457276 215.90172848 85.14990234 219.30737305 C94.77033293 225.13007614 104.41951455 230.74060536 114.40283203 235.91455078 C118.03575258 237.79839281 121.61077625 239.76273069 125.16845703 241.78564453 C126.12880859 242.33091797 127.08916016 242.87619141 128.07861328 243.43798828 C128.74763672 243.90333984 129.41666016 244.36869141 130.10595703 244.84814453 C130.10595703 245.50814453 130.10595703 246.16814453 130.10595703 246.84814453 C131.15396484 247.15558594 131.15396484 247.15558594 132.22314453 247.46923828 C133.13322266 247.73865234 134.04330078 248.00806641 134.98095703 248.28564453 C135.88587891 248.55248047 136.79080078 248.81931641 137.72314453 249.09423828 C140.10595703 249.84814453 140.10595703 249.84814453 142.10595703 250.84814453 C142.10595703 251.50814453 142.10595703 252.16814453 142.10595703 252.84814453 C143.75595703 253.50814453 145.40595703 254.16814453 147.10595703 254.84814453 C146.52417288 268.57825048 142.57757215 281.2201685 137.60205078 293.90673828 C136.60117474 296.48032887 135.70019375 299.05567892 134.89111328 301.69580078 C132.04496584 310.96255018 128.18265756 318.6773188 123.10595703 326.84814453 C122.39982607 327.99763739 121.69409505 329.14737603 120.98876953 330.29736328 C119.63636725 332.49437905 118.27727033 334.68729173 116.91064453 336.87548828 C115.34643494 339.45203266 113.92844479 342.0482172 112.54345703 344.72314453 C110.512724 348.48274488 108.06222535 351.14729136 104.85205078 353.94970703 C102.90368702 355.90725477 102.90368702 355.90725477 101.4296875 359.0090332 C98.97081612 363.3712986 95.71921004 366.66714815 92.18017578 370.17236328 C91.51435989 370.84104935 90.84854401 371.50973541 90.16255188 372.19868469 C88.76008231 373.60318562 87.35385761 375.00394587 85.9440918 376.40112305 C83.79982881 378.52932049 81.67204528 380.67305144 79.54541016 382.81884766 C78.17462616 384.18764906 76.80291175 385.55551946 75.43017578 386.92236328 C74.80076584 387.55784592 74.1713559 388.19332855 73.52287292 388.84806824 C69.63936577 392.67109436 65.90227684 395.27239067 61.10595703 397.84814453 C59.4177877 399.49302747 57.75242388 401.16151995 56.10595703 402.84814453 C50.95641911 407.30865978 45.43430143 410.27781533 39.31298828 413.21142578 C35.93863099 414.93353992 32.7984962 416.87277223 29.60595703 418.91064453 C19.1999228 425.40825121 7.74220623 429.16197753 -3.80078125 433.12060547 C-5.73388442 433.79247944 -7.65634787 434.49475905 -9.57763672 435.19970703 C-26.25464192 441.15447559 -43.91219448 443.92446216 -61.58154297 444.15673828 C-63.26687386 444.17969971 -63.26687386 444.17969971 -64.98625183 444.203125 C-96.45019198 444.55197049 -125.10399894 443.40559075 -154.703125 431.6875 C-156.91422877 430.84041121 -159.1386848 430.0845923 -161.39013672 429.35205078 C-174.16422039 425.1777257 -184.86272347 418.97477056 -196.10107422 411.58642578 C-198.44006957 410.13068742 -200.78495999 408.83613183 -203.21435547 407.54345703 C-207.89713502 404.96382399 -211.88408578 401.8547107 -215.95654297 398.41064453 C-217.27948146 397.30624455 -218.60369952 396.2033755 -219.92919922 395.10205078 C-220.57260254 394.56338379 -221.21600586 394.0247168 -221.87890625 393.46972656 C-224.63270644 391.25374148 -227.51426347 389.22977455 -230.4230957 387.22290039 C-230.9085083 386.76923096 -231.3939209 386.31556152 -231.89404297 385.84814453 C-231.89404297 384.85814453 -231.89404297 383.86814453 -231.89404297 382.84814453 C-232.72935547 382.50783203 -232.72935547 382.50783203 -233.58154297 382.16064453 C-236.54140401 380.4807234 -238.50841347 378.27550516 -240.89404297 375.84814453 C-241.73322266 375.05537109 -242.57240234 374.26259766 -243.43701172 373.44580078 C-250.14106584 367.01901921 -255.45502742 360.21011246 -260.68994141 352.56054688 C-262.57885155 349.87425009 -264.62196921 347.30991113 -266.64404297 344.72314453 C-276.89404297 331.17785146 -276.89404297 331.17785146 -276.89404297 324.84814453 C-277.55404297 324.84814453 -278.21404297 324.84814453 -278.89404297 324.84814453 C-287.76360277 306.65879347 -294.33045226 288.31125655 -299.89404297 268.84814453 C-300.08853027 268.17106445 -300.28301758 267.49398438 -300.48339844 266.79638672 C-309.95071878 231.6526828 -307.82667477 186.39147404 -296.63623047 152.1484375 C-295.94196584 149.9966739 -295.29844981 147.83781026 -294.67529297 145.66455078 C-292.51560653 138.22502333 -289.87798975 131.06011963 -286.89404297 123.91064453 C-286.57387207 123.14155762 -286.25370117 122.3724707 -285.92382812 121.58007812 C-282.82397114 114.33977611 -278.99775435 107.56330861 -274.89404297 100.84814453 C-272.99585932 97.72625873 -271.2161523 94.58290325 -269.51904297 91.34814453 C-267.13518892 87.01317428 -264.20733688 83.31996021 -261.05810547 79.51611328 C-258.77091453 76.69634539 -256.64942896 73.78777609 -254.51904297 70.84814453 C-250.13562855 64.95556148 -245.19369098 59.91088775 -239.89404297 54.84814453 C-236.31313269 51.33927803 -236.31313269 51.33927803 -233.14404297 47.47314453 C-229.85406633 43.63483845 -225.92682983 40.87538086 -221.89404297 37.84814453 C-219.72220366 36.18949578 -217.55370024 34.52653275 -215.38500977 32.86376953 C-213.15379571 31.15352681 -210.92103886 29.44533568 -208.68701172 27.73876953 C-208.05303467 27.2544043 -207.41905762 26.77003906 -206.76586914 26.27099609 C-205.83931519 25.56668457 -205.83931519 25.56668457 -204.89404297 24.84814453 C-204.22477783 24.32325439 -203.5555127 23.79836426 -202.8659668 23.25756836 C-200.09145113 21.27449556 -197.02665038 20.18351884 -193.89404297 18.84814453 C-191.7025198 17.57758288 -189.53515573 16.26443064 -187.39404297 14.91064453 C-180.44405059 10.53316147 -174.03175822 6.64684733 -166.20654297 4.03564453 C-164.68277641 3.51968823 -163.15935176 3.00272133 -161.63623047 2.48486328 C-160.85086914 2.21851074 -160.06550781 1.9521582 -159.25634766 1.67773438 C-156.96930328 0.87457431 -154.71817478 0.00933495 -152.46435547 -0.88232422 C-106.19682405 -18.88769462 -45.91240755 -19.25289673 0 0 Z " fill="#DEE0DC" transform="translate(334.89404296875,40.15185546875)"/>
</svg>
